<?xml version="1.0" encoding="UTF-8" standalone="no"?>
<!-- Created with Inkscape (http://www.inkscape.org/) -->

<svg
   xmlns:dc="http://purl.org/dc/elements/1.1/"
   xmlns:cc="http://creativecommons.org/ns#"
   xmlns:rdf="http://www.w3.org/1999/02/22-rdf-syntax-ns#"
   xmlns:svg="http://www.w3.org/2000/svg"
   xmlns="http://www.w3.org/2000/svg"
   xmlns:sodipodi="http://sodipodi.sourceforge.net/DTD/sodipodi-0.dtd"
   xmlns:inkscape="http://www.inkscape.org/namespaces/inkscape"
   width="50mm"
   height="56.9mm"
   viewBox="0 0 50 56.9"
   version="1.1"
   id="svg8"
   inkscape:version="0.92.3 (2405546, 2018-03-11)"
   sodipodi:docname="cbp-american.svg"
   style="enable-background:new">
  <defs
     id="defs2">
    <filter
       inkscape:collect="always"
       style="color-interpolation-filters:sRGB"
       id="filter912">
      <feBlend
         inkscape:collect="always"
         mode="overlay"
         in2="BackgroundImage"
         id="feBlend914" />
    </filter>
  </defs>
  <sodipodi:namedview
     id="base"
     pagecolor="#ffffff"
     bordercolor="#666666"
     borderopacity="1.0"
     inkscape:pageopacity="0.0"
     inkscape:pageshadow="2"
     inkscape:zoom="2"
     inkscape:cx="69"
     inkscape:cy="108"
     inkscape:document-units="px"
     inkscape:current-layer="layer3"
     showgrid="false"
     showborder="false"
     inkscape:window-width="1920"
     inkscape:window-height="985"
     inkscape:window-x="27"
     inkscape:window-y="1080"
     inkscape:window-maximized="1" />
  <metadata
     id="metadata5">
    <rdf:RDF>
      <cc:Work
         rdf:about="">
        <dc:format>image/svg+xml</dc:format>
        <dc:type
           rdf:resource="http://purl.org/dc/dcmitype/StillImage" />
        <dc:title></dc:title>
      </cc:Work>
    </rdf:RDF>
  </metadata>
  <g
     inkscape:groupmode="layer"
     id="layer8"
     inkscape:label="feet"
     style="display:inline;opacity:1"
     transform="translate(-49.6,-92.7)" />
  <g
     inkscape:groupmode="layer"
     id="layer1"
     inkscape:label="neck"
     style="display:inline;filter:url(#filter912)"
     transform="translate(-49.6,-92.7)" />
  <g
     inkscape:groupmode="layer"
     id="layer4"
     inkscape:label="body"
     style="display:inline;opacity:0.99"
     transform="translate(-49.6,-92.7)">
    <g
       inkscape:groupmode="layer"
       id="layer5"
       inkscape:label="top-torso"
       style="display:inline;opacity:1" />
    <g
       inkscape:groupmode="layer"
       id="layer6"
       inkscape:label="suspenders"
       style="display:inline" />
    <g
       inkscape:groupmode="layer"
       id="layer7"
       inkscape:label="suspender-details"
       style="display:inline" />
  </g>
  <g
     inkscape:groupmode="layer"
     id="layer2"
     inkscape:label="hat"
     style="display:inline;opacity:1"
     transform="translate(-49.6,-92.7)" />
  <g
     inkscape:groupmode="layer"
     id="layer3"
     inkscape:label="head"
     style="display:inline"
     transform="translate(-49.6,-92.7)">
    <g
       id="g4772">
      <path
         inkscape:connector-curvature="0"
         id="path952"
         d="m 63.5,146 h -0.8 c 0,0 -2,0 -2.7,1 0,0 -0.7,1 0,1 0,0 0.5,0 1.2,0 0,0 0.1,1 1.6,0 0,0 1.8,2 3,0 h 1.7 c 0,0 0.2,1 0.8,0 0,0 -0.2,1 1.1,1 0,0 0.5,1 1.5,0 0,0 0.8,1 1.7,0 0,0 1,1 1.9,-1 0,0 1.9,1 3.6,0 0,0 2.5,1 2.7,-1 0,0 -4.5,-5 -7.8,-1 0,0 -8.4,-3 -9.5,0 z"
         style="display:inline;opacity:1;fill:#f4d7d7;fill-opacity:0.996;stroke:#000000;stroke-width:0.265px;stroke-linecap:butt;stroke-linejoin:miter;stroke-opacity:1" />
      <path
         inkscape:connector-curvature="0"
         id="path954"
         d="m 67.5,148 c 0,0 -1.6,-2 2.3,-2"
         style="display:inline;opacity:1;fill:none;stroke:#000000;stroke-width:0.265px;stroke-linecap:butt;stroke-linejoin:miter;stroke-opacity:1" />
      <path
         inkscape:connector-curvature="0"
         id="path956"
         d="m 68.3,148 c 0,0 1.8,-1 2.4,-1"
         style="display:inline;opacity:1;fill:none;stroke:#000000;stroke-width:0.265px;stroke-linecap:butt;stroke-linejoin:miter;stroke-opacity:1" />
      <path
         inkscape:connector-curvature="0"
         id="path958"
         d="m 69.4,149 c 0,0 1,-1 2.1,-2"
         style="display:inline;opacity:1;fill:none;stroke:#000000;stroke-width:0.265px;stroke-linecap:butt;stroke-linejoin:miter;stroke-opacity:1" />
      <path
         inkscape:connector-curvature="0"
         id="path960"
         d="m 70.9,149 c 0,0 0.2,-1 1.3,-1"
         style="display:inline;opacity:1;fill:none;stroke:#000000;stroke-width:0.265px;stroke-linecap:butt;stroke-linejoin:miter;stroke-opacity:1" />
      <path
         inkscape:connector-curvature="0"
         id="path962"
         d="m 72.6,149 c 0,0 0.2,-1 0.8,-1"
         style="display:inline;opacity:1;fill:none;stroke:#000000;stroke-width:0.265px;stroke-linecap:butt;stroke-linejoin:miter;stroke-opacity:1" />
      <path
         inkscape:connector-curvature="0"
         id="path964"
         d="m 62.8,148 c 0,0 -0.9,-1 2.1,-1"
         style="display:inline;opacity:1;fill:none;stroke:#000000;stroke-width:0.265px;stroke-linecap:butt;stroke-linejoin:miter;stroke-opacity:1" />
      <path
         inkscape:connector-curvature="0"
         id="path966"
         d="m 61.2,148 c 0,0 -0.3,-1 2.1,-1"
         style="display:inline;opacity:1;fill:none;stroke:#000000;stroke-width:0.265px;stroke-linecap:butt;stroke-linejoin:miter;stroke-opacity:1" />
      <path
         inkscape:connector-curvature="0"
         id="path968"
         d="m 60,148 c 0,0 1,-1 1.6,-1"
         style="display:inline;opacity:1;fill:none;stroke:#000000;stroke-width:0.265px;stroke-linecap:butt;stroke-linejoin:miter;stroke-opacity:1" />
      <g
         id="g917"
         style="display:inline;filter:url(#filter912)">
        <path
           style="fill:#f4e3d7;fill-opacity:1;stroke:#000000;stroke-width:0.265px;stroke-linecap:butt;stroke-linejoin:miter;stroke-opacity:1"
           d="m 72.6,110 -1.9,4 4.6,2 1.8,-5 z"
           id="path894"
           inkscape:connector-curvature="0" />
      </g>
      <path
         inkscape:connector-curvature="0"
         id="path4618"
         d="m 62.6,107 -0.1,4 c 0,0 -0.5,1 0.2,1 0,0 -1.3,0 -1.6,1 0,0 0.9,-1 0.6,-2 0,0 -1.4,-1 -1.4,3 0,0 0.4,1 1.1,0 0,0 -1.4,3 0.5,2 0,0 -0.4,2 1.1,1 0,0 0.2,1 2.6,-2 0,0 0.5,-4 -0.3,-6 l -0.2,-2 c 0,0 -1,-2 -2.5,0 z"
         style="display:inline;opacity:0.99;fill:#f4d7d7;stroke:#000000;stroke-width:0.265px;stroke-linecap:butt;stroke-linejoin:miter;stroke-opacity:1" />
      <path
         inkscape:connector-curvature="0"
         id="path4605"
         d="m 60.3,110 c 0,0 0,1 2.2,1 0,0 -0.1,-2 0.6,-2 0,0 -2.6,-1 -2.8,1 z"
         style="display:inline;opacity:0.99;fill:#999999;stroke:#000000;stroke-width:0.265px;stroke-linecap:butt;stroke-linejoin:miter;stroke-opacity:1" />
      <path
         inkscape:connector-curvature="0"
         id="path4601"
         d="m 59.1,107 c 0,0 -0.9,-1 0,-2 0,0 -0.4,-1 0.9,0 0,0 1,-1 1.8,1 0,0 0,1 0.8,1 0,0 -2.2,2 -3.5,0 z"
         style="display:inline;opacity:0.99;fill:#b3b3b3;stroke:#000000;stroke-width:0.265px;stroke-linecap:butt;stroke-linejoin:miter;stroke-opacity:1" />
      <path
         inkscape:connector-curvature="0"
         id="path4597"
         d="m 69.6,108 -4.3,1 -0.2,-2 4.5,-1 h 0.8 z"
         style="display:inline;opacity:0.99;fill:#552200;stroke:#000000;stroke-width:0.265px;stroke-linecap:butt;stroke-linejoin:miter;stroke-opacity:1" />
      <path
         inkscape:connector-curvature="0"
         id="path4599"
         d="m 62.6,107 h -0.5 c 0,0 -0.9,1 -3,0 0,0 -0.5,2 -8,3 0,0 -1.1,-1 -1.4,0 0,0 0.8,7 2.5,6 l 5.6,-6 c 0,0 1.1,0 1.2,1 0,0 0.6,-1 1.3,-1 0,0 0,-1 2.8,-1 0,0 0,-2 -0.5,-2 z"
         style="display:inline;opacity:0.99;fill:#502d16;stroke:#000000;stroke-width:0.265px;stroke-linecap:butt;stroke-linejoin:miter;stroke-opacity:1" />
      <path
         inkscape:connector-curvature="0"
         id="path4603"
         d="m 60,106 c -0.5,1 -1,1 -0.4,1 0.7,0 1,-1 1,-1 0,0 0.4,-1 0.2,-1"
         style="display:inline;opacity:0.99;fill:none;stroke:#000000;stroke-width:0.265px;stroke-linecap:butt;stroke-linejoin:miter;stroke-opacity:1" />
      <path
         inkscape:connector-curvature="0"
         id="path4607"
         d="m 71.1,104 c 0,0 -6.4,-3 -9.4,-2 0,0 -0.6,2 0.3,2 0,0 -0.6,0 -0.6,1 0,0 0.4,2 1.2,2 0.8,0 0.9,-2 2.5,0 0,0 1,-1 0.6,-2 0,0 3.5,2 4.7,1 z"
         style="display:inline;opacity:0.99;fill:#e9c6af;stroke:#000000;stroke-width:0.265px;stroke-linecap:butt;stroke-linejoin:miter;stroke-opacity:1" />
      <path
         inkscape:connector-curvature="0"
         id="path4622"
         d="m 61.4,114 c 0,0 0.8,0 1.3,0"
         style="display:inline;opacity:0.99;fill:none;stroke:#000000;stroke-width:0.265px;stroke-linecap:butt;stroke-linejoin:miter;stroke-opacity:1" />
      <path
         inkscape:connector-curvature="0"
         id="path4624"
         d="m 61.9,116 c 0,0 1.4,-2 1.6,-2"
         style="display:inline;opacity:0.99;fill:none;stroke:#000000;stroke-width:0.265px;stroke-linecap:butt;stroke-linejoin:miter;stroke-opacity:1" />
      <path
         inkscape:connector-curvature="0"
         id="path4626"
         d="m 63,117 c 0,0 1.4,-2 1.4,-2"
         style="display:inline;opacity:0.99;fill:none;stroke:#000000;stroke-width:0.265px;stroke-linecap:butt;stroke-linejoin:miter;stroke-opacity:1" />
      <path
         inkscape:connector-curvature="0"
         id="path4628"
         d="m 65.7,111 c 0,0 0.7,1 1.8,1 0,0 0.6,3 -1.8,1 z"
         style="display:inline;opacity:0.99;fill:#ffd5d5;stroke:#000000;stroke-width:0.265px;stroke-linecap:butt;stroke-linejoin:miter;stroke-opacity:1" />
      <path
         inkscape:connector-curvature="0"
         id="path4630"
         d="m 84.9,107 c 0,0 13.4,-2 14,-1 0,0 2.1,-1 -0.9,-2 0,0 -2,-1 -2.2,0 v 0 c 0,0 -10.3,0 -10.4,1 z"
         style="display:inline;opacity:0.99;fill:#cccccc;stroke:#000000;stroke-width:0.265px;stroke-linecap:butt;stroke-linejoin:miter;stroke-opacity:1" />
      <path
         inkscape:connector-curvature="0"
         id="path4632"
         d="m 86.1,105 c 0,0 7.2,0 9.7,0"
         style="display:inline;opacity:0.99;fill:none;stroke:#000000;stroke-width:0.265px;stroke-linecap:butt;stroke-linejoin:miter;stroke-opacity:1" />
      <path
         inkscape:connector-curvature="0"
         id="path4634"
         d="m 96.3,104 1.7,1"
         style="display:inline;opacity:0.99;fill:none;stroke:#000000;stroke-width:0.265px;stroke-linecap:butt;stroke-linejoin:miter;stroke-opacity:1" />
      <path
         inkscape:connector-curvature="0"
         id="path4636"
         d="m 98,104 c 0,0 1.6,1 0.2,2"
         style="display:inline;opacity:0.99;fill:none;stroke:#000000;stroke-width:0.265px;stroke-linecap:butt;stroke-linejoin:miter;stroke-opacity:1" />
      <path
         inkscape:connector-curvature="0"
         id="path4638"
         d="m 98,105 c 0,0 0.5,0 -0.4,1"
         style="display:inline;opacity:0.99;fill:none;stroke:#000000;stroke-width:0.265px;stroke-linecap:butt;stroke-linejoin:miter;stroke-opacity:1" />
      <path
         inkscape:connector-curvature="0"
         id="path849"
         d="m 71.5,110 -3.6,7 8.1,2 c 0,0 -2.9,5 1.3,7 0,0 2.8,2 3.4,0 0,0 -2.6,-4 0.9,-11 l 4.7,2 c 0,0 -0.9,4 -0.3,3 0,0 -1.4,4 -0.1,3 0,0 1.7,-1 2.5,0 0,0 0.8,1 0.2,-2 0,0 0.9,-2 0.8,-5 0,0 -5.8,-5 -8.5,-6 l -5.8,2 -2,1 -0.1,-2 z"
         style="display:inline;opacity:1;fill:#e9c6af;fill-opacity:1;stroke:#000000;stroke-width:0.265px;stroke-linecap:butt;stroke-linejoin:miter;stroke-opacity:1" />
      <path
         inkscape:connector-curvature="0"
         id="path851"
         d="m 70.8,110 c 0,0 -3.6,5 -3.1,6 0.4,0 1.6,0 1.6,0 l 2.8,-5 z"
         style="display:inline;opacity:1;fill:#d40000;stroke:#000000;stroke-width:0.265px;stroke-linecap:butt;stroke-linejoin:miter;stroke-opacity:1" />
      <path
         inkscape:connector-curvature="0"
         id="path853"
         d="m 77.1,111 c -0.1,0 -3.3,5 -2.8,6 0.5,0 1.1,0 1.1,0 l 3.5,-6 z"
         style="display:inline;opacity:1;fill:#ff0000;stroke:#000000;stroke-width:0.265px;stroke-linecap:butt;stroke-linejoin:miter;stroke-opacity:1" />
      <path
         inkscape:connector-curvature="0"
         id="path855"
         d="m 72.1,111 0.2,3 -1.4,2 1.6,1 1,-3 2.4,-1"
         style="display:inline;opacity:1;fill:none;stroke:#000000;stroke-width:0.265px;stroke-linecap:butt;stroke-linejoin:miter;stroke-opacity:1" />
      <ellipse
         ry="0.38"
         rx="0.331"
         cy="115"
         cx="72.6"
         id="path857"
         style="display:inline;opacity:1;fill:#280b0b;fill-opacity:1;stroke-width:0.265" />
      <ellipse
         ry="0.413"
         rx="0.331"
         cy="116"
         cx="72.1"
         id="path863"
         style="display:inline;opacity:1;fill:#280b0b;fill-opacity:1;stroke-width:0.265" />
      <path
         inkscape:connector-curvature="0"
         id="path865"
         d="m 81,111 c 0,0 -5.9,6 -0.3,4"
         style="display:inline;opacity:1;fill:none;stroke:#000000;stroke-width:0.265px;stroke-linecap:butt;stroke-linejoin:miter;stroke-opacity:1" />
      <path
         inkscape:connector-curvature="0"
         id="path867"
         d="m 79.7,114 c 0.1,0 1.6,-1 1.9,1"
         style="display:inline;opacity:1;fill:none;stroke:#000000;stroke-width:0.265px;stroke-linecap:butt;stroke-linejoin:miter;stroke-opacity:1" />
      <path
         sodipodi:nodetypes="ccccccccccccccccccccccccccccccccccc"
         inkscape:connector-curvature="0"
         id="path870"
         d="m 67,117 c 0,0 7.2,0 9.1,2 0,0 -3,7 3.7,8 l 1.1,-1 c 0,0 -1.7,-6 -0.7,-7 0,0 2.7,7 2.2,8 l -1.5,1 0.6,2 -0.9,1 c 0,0 0.1,4 -0.4,5 0,0 1,1 0,3 0,0 1.9,3 0.5,4 0,0 1.2,1 0.6,2 0,0 1.1,1 1,1 0,0 -0.2,3 -1.3,2 0,0 -5.2,-4 -6.9,-3 0,0 -1.9,1 -2,0 0,0 -0.6,0 -0.4,-1 l 0.6,-1 c 0,0 -0.5,-1 0.4,-2 0,0 -1.6,-1 -0.5,-2 0,0 0.2,-3 -0.2,-5 0,0 -1.1,-2 -1.2,0 0,0 0.7,4 -0.1,5 0,0 1.1,1 -0.1,3 0,0 1.7,1 0.7,3 1.6,0 0.8,1 -1.3,1 0,0 -4.5,-2 -6.6,0 0,0 -2,-1 0.3,-2 0,0 -1.2,-3 0.2,-3 0,0 -1.4,-2 0.4,-3 0,0 -1.3,-1 -0.2,-12 l 0.8,-1 c 0,0 -2,-1 0.6,-2 0,0 -1.1,-2 1.5,-6 z"
         style="display:inline;opacity:0.99;fill:#8080ff;stroke:#000000;stroke-width:0.265px;stroke-linecap:butt;stroke-linejoin:miter;stroke-opacity:1" />
      <path
         inkscape:connector-curvature="0"
         id="path970"
         d="m 72.3,143 c 0,0 6.1,0 9,2"
         style="display:inline;opacity:0.99;fill:none;stroke:#000000;stroke-width:0.265px;stroke-linecap:butt;stroke-linejoin:miter;stroke-opacity:1" />
      <path
         sodipodi:nodetypes="cc"
         inkscape:connector-curvature="0"
         id="path972"
         d="m 63.7,144 c 0,0 5.3,-2 7.6,1"
         style="display:inline;opacity:0.99;fill:none;stroke:#000000;stroke-width:0.265px;stroke-linecap:butt;stroke-linejoin:miter;stroke-opacity:1" />
      <ellipse
         ry="0.513"
         rx="0.463"
         cy="118"
         cx="67.9"
         id="path873"
         style="display:inline;opacity:1;fill:#000000;fill-opacity:1;stroke-width:0.265" />
      <ellipse
         ry="0.413"
         rx="0.43"
         cy="119"
         cx="74.1"
         id="path875"
         style="display:inline;opacity:1;fill:#000000;fill-opacity:1;stroke-width:0.265" />
      <path
         inkscape:connector-curvature="0"
         id="path877"
         d="m 67.8,119 c 0,0 -1.3,3 -0.9,4 0.3,0 2.5,3 2.7,2 0,0 2.4,-2 3,-2 0,0 0.1,-2 1,-3 0,0 -2.3,-2 -5.8,-1 z"
         style="display:inline;opacity:0.99;fill:none;stroke:#000000;stroke-width:0.265px;stroke-linecap:butt;stroke-linejoin:miter;stroke-opacity:1" />
      <path
         inkscape:connector-curvature="0"
         id="path879"
         d="m 75.4,135 c 0,0 -1.3,2 -1.1,4 0,0 3.1,1 3.3,1 l 0.8,-4 c 0,0 -1.5,-1 -3,-1 z"
         style="display:inline;opacity:0.99;fill:#ff7f2a;stroke:#000000;stroke-width:0.265px;stroke-linecap:butt;stroke-linejoin:miter;stroke-opacity:1" />
      <path
         inkscape:connector-curvature="0"
         id="path881"
         d="m 74.4,135 1.7,1"
         style="display:inline;opacity:0.99;fill:none;stroke:#000000;stroke-width:0.265px;stroke-linecap:butt;stroke-linejoin:miter;stroke-opacity:1" />
      <path
         inkscape:connector-curvature="0"
         id="path883"
         d="m 74.1,137 h 1.3"
         style="display:inline;opacity:0.99;fill:none;stroke:#000000;stroke-width:0.265px;stroke-linecap:butt;stroke-linejoin:miter;stroke-opacity:1" />
      <path
         inkscape:connector-curvature="0"
         id="path885"
         d="m 73.8,138 h 1.4"
         style="display:inline;opacity:0.99;fill:none;stroke:#000000;stroke-width:0.265px;stroke-linecap:butt;stroke-linejoin:miter;stroke-opacity:1" />
      <path
         inkscape:connector-curvature="0"
         id="path887"
         d="m 75.8,139 -0.7,1"
         style="display:inline;opacity:0.99;fill:none;stroke:#000000;stroke-width:0.265px;stroke-linecap:butt;stroke-linejoin:miter;stroke-opacity:1" />
      <path
         inkscape:connector-curvature="0"
         id="path889"
         d="m 76.8,139 -0.6,1"
         style="display:inline;opacity:0.99;fill:none;stroke:#000000;stroke-width:0.265px;stroke-linecap:butt;stroke-linejoin:miter;stroke-opacity:1" />
      <path
         inkscape:connector-curvature="0"
         id="path891"
         d="m 76.8,139 h 1.8"
         style="display:inline;opacity:0.99;fill:none;stroke:#000000;stroke-width:0.265px;stroke-linecap:butt;stroke-linejoin:miter;stroke-opacity:1" />
      <path
         inkscape:connector-curvature="0"
         id="path893"
         d="m 77.2,138 h 1.5"
         style="display:inline;opacity:0.99;fill:none;stroke:#000000;stroke-width:0.265px;stroke-linecap:butt;stroke-linejoin:miter;stroke-opacity:1" />
      <path
         inkscape:connector-curvature="0"
         id="path895"
         d="m 79.2,137 -1.8,-1 0.8,-1"
         style="display:inline;opacity:0.99;fill:none;stroke:#000000;stroke-width:0.265px;stroke-linecap:butt;stroke-linejoin:miter;stroke-opacity:1" />
      <path
         inkscape:connector-curvature="0"
         id="path913"
         d="m 66.5,135 1.3,5 -3.2,1 -0.7,-5 z"
         style="display:inline;opacity:0.99;fill:#008080;stroke:#000000;stroke-width:0.265px;stroke-linecap:butt;stroke-linejoin:miter;stroke-opacity:1" />
      <path
         inkscape:connector-curvature="0"
         id="path915"
         d="m 65.4,140 0.4,2"
         style="display:inline;opacity:0.99;fill:none;stroke:#000000;stroke-width:0.265px;stroke-linecap:butt;stroke-linejoin:miter;stroke-opacity:1" />
      <path
         inkscape:connector-curvature="0"
         id="path917"
         d="m 66.8,139 0.4,2"
         style="display:inline;opacity:0.99;fill:none;stroke:#000000;stroke-width:0.265px;stroke-linecap:butt;stroke-linejoin:miter;stroke-opacity:1" />
      <path
         inkscape:connector-curvature="0"
         id="path919"
         d="m 66.8,139 1.8,-1"
         style="display:inline;opacity:0.99;fill:none;stroke:#000000;stroke-width:0.265px;stroke-linecap:butt;stroke-linejoin:miter;stroke-opacity:1" />
      <path
         inkscape:connector-curvature="0"
         id="path921"
         d="m 66.5,138 1.7,-1"
         style="display:inline;opacity:0.99;fill:none;stroke:#000000;stroke-width:0.265px;stroke-linecap:butt;stroke-linejoin:miter;stroke-opacity:1" />
      <path
         inkscape:connector-curvature="0"
         id="path923"
         d="m 66.1,137 1.8,-1"
         style="display:inline;opacity:0.99;fill:none;stroke:#000000;stroke-width:0.265px;stroke-linecap:butt;stroke-linejoin:miter;stroke-opacity:1" />
      <path
         inkscape:connector-curvature="0"
         id="path925"
         d="m 65.3,134 0.8,3"
         style="display:inline;opacity:0.99;fill:none;stroke:#000000;stroke-width:0.265px;stroke-linecap:butt;stroke-linejoin:miter;stroke-opacity:1" />
      <path
         inkscape:connector-curvature="0"
         id="path927"
         d="m 64.4,135 0.7,2"
         style="display:inline;opacity:0.99;fill:none;stroke:#000000;stroke-width:0.265px;stroke-linecap:butt;stroke-linejoin:miter;stroke-opacity:1" />
      <path
         inkscape:connector-curvature="0"
         id="path929"
         d="m 63.8,140 h 1.6"
         style="display:inline;opacity:0.99;fill:none;stroke:#000000;stroke-width:0.265px;stroke-linecap:butt;stroke-linejoin:miter;stroke-opacity:1" />
      <path
         inkscape:connector-curvature="0"
         id="path931"
         d="m 64.3,138 h 1"
         style="display:inline;opacity:0.99;fill:none;stroke:#000000;stroke-width:0.265px;stroke-linecap:butt;stroke-linejoin:miter;stroke-opacity:1" />
      <path
         inkscape:connector-curvature="0"
         id="path933"
         d="m 68.5,127 c 0,0 -0.3,6 0.1,7"
         style="display:inline;opacity:0.99;fill:none;stroke:#000000;stroke-width:0.265px;stroke-linecap:butt;stroke-linejoin:miter;stroke-opacity:1" />
      <path
         inkscape:connector-curvature="0"
         id="path935"
         d="m 70.5,127 c 0,0 -0.6,6 0.3,7"
         style="display:inline;opacity:0.99;fill:none;stroke:#000000;stroke-width:0.265px;stroke-linecap:butt;stroke-linejoin:miter;stroke-opacity:1" />
      <path
         inkscape:connector-curvature="0"
         id="path937"
         d="m 65.6,133 c 0,0 2.7,2 10.1,0"
         style="display:inline;opacity:0.99;fill:none;stroke:#000000;stroke-width:0.265px;stroke-linecap:butt;stroke-linejoin:miter;stroke-opacity:1" />
      <path
         inkscape:connector-curvature="0"
         id="path939"
         d="m 65.9,134 c 0,0 8,-1 9.6,0"
         style="display:inline;opacity:0.99;fill:none;stroke:#000000;stroke-width:0.265px;stroke-linecap:butt;stroke-linejoin:miter;stroke-opacity:1" />
      <path
         inkscape:connector-curvature="0"
         id="path941"
         d="m 64.3,126 c 0,0 4.5,2 13,1"
         style="display:inline;opacity:0.99;fill:none;stroke:#000000;stroke-width:0.265px;stroke-linecap:butt;stroke-linejoin:miter;stroke-opacity:1" />
      <path
         inkscape:connector-curvature="0"
         id="path943"
         d="m 86,123 v 3 c 0,0 -1.1,1 -0.7,3 H 83 c 0,0 1,2 3.2,0 0,0 1.4,2 0.3,3 0,0 -1.8,2 0.8,1 0,0 0.8,0 0.8,-3 0,0 4.2,2 6.2,1 0,0 1.5,-1 -2.5,-1 0,0 0.4,-2 -0.2,-1 0,0 2.2,-1 1.5,-2 0,0 -3.3,2 -4.3,1 0,0 0.3,-1 -1.1,-2 l 0.2,-3 c 0,0 -1.6,-1 -1.9,0 z"
         style="display:inline;opacity:0.99;fill:#f4d7d7;fill-opacity:1;stroke:#000000;stroke-width:0.265px;stroke-linecap:butt;stroke-linejoin:miter;stroke-opacity:1" />
      <path
         inkscape:connector-curvature="0"
         id="path945"
         d="m 89.1,130 h 2.7"
         style="display:inline;opacity:0.99;fill:none;stroke:#000000;stroke-width:0.265px;stroke-linecap:butt;stroke-linejoin:miter;stroke-opacity:1" />
      <path
         inkscape:connector-curvature="0"
         id="path947"
         d="m 89.2,129 h 2.4"
         style="display:inline;opacity:0.99;fill:none;stroke:#000000;stroke-width:0.265px;stroke-linecap:butt;stroke-linejoin:miter;stroke-opacity:1" />
      <path
         inkscape:connector-curvature="0"
         id="path949"
         d="m 91,131 c 0,0 1.5,3 1,0"
         style="display:inline;opacity:0.99;fill:none;stroke:#000000;stroke-width:0.265px;stroke-linecap:butt;stroke-linejoin:miter;stroke-opacity:1" />
      <path
         inkscape:connector-curvature="0"
         id="path4539"
         d="m 72.5,96.2 c 0,0 1.8,6.8 19.5,11.8 l -4.3,-8.3 c 0,0 0.5,-0.4 0.5,-1.1 l 0.6,-0.3 -0.1,-0.9 1.3,-0.1 -3.3,-3.2 -4.8,-1.2 0.9,1.6 -1.4,0.2 0.4,1.3 h -1 v 1.1 c 0,0 -4.4,1.2 -8.3,-0.9 z"
         style="display:inline;opacity:1;fill:#d38d5f;stroke:#000000;stroke-width:0.265px;stroke-linecap:butt;stroke-linejoin:miter;stroke-opacity:1" />
      <path
         inkscape:connector-curvature="0"
         id="path4577"
         d="m 81.8,96 c 0,0 2.7,0.2 6.4,2.6 l -0.5,1.1 c 0,0 -3.2,-2.4 -6.9,-2.6 V 96 Z"
         style="display:inline;opacity:1;fill:#483737;stroke:#000000;stroke-width:0.265px;stroke-linecap:butt;stroke-linejoin:miter;stroke-opacity:1" />
      <path
         inkscape:connector-curvature="0"
         id="path4586"
         d="m 76.5,99.7 c -2,-1.1 -2.2,-2.2 -2.2,-2.2 0,0 10.2,2.4 12.3,4.5 2,2 -12.3,-4.5 -12.3,-4.5"
         style="display:inline;opacity:1;fill:#483737;stroke:#000000;stroke-width:0.265px;stroke-linecap:butt;stroke-linejoin:miter;stroke-opacity:1" />
      <path
         inkscape:connector-curvature="0"
         id="path4582"
         d="m 85.4,103 c 0,0 -0.9,2 1.2,2 0,0 -0.8,-1 2.2,-1 0,0 2.8,-1 0,-2 0,0 -2.8,-1 -3.4,1 z"
         style="fill:#f4e3d7;stroke:#000000;stroke-width:0.265px;stroke-linecap:butt;stroke-linejoin:miter;stroke-opacity:1" />
      <path
         inkscape:connector-curvature="0"
         id="path4584"
         d="m 84.7,102 c 0,0 0.8,0 1.2,1 0,0 -1.2,2 -0.3,2 l -0.3,1 h -0.5 l -0.1,1 h -0.6 l -0.1,1 -0.4,-1 0.1,1 c 0,0 -0.6,-1 -0.6,-1 0,0 0.1,2 0.1,2 l -0.3,-1 -0.3,1 -0.6,-1 v 2 l -0.3,-1 -0.2,1 c 0,0 -0.3,-1 -0.3,-1 0,0 -0.7,2 -0.7,2 l -0.4,-1 -1.6,2 -0.5,-1 -1.5,1 -0.1,-1 -2.4,2 -0.2,-2 -1.5,2 c 0,0 -0.1,-3 -0.1,-3 0,0 -0.9,2 -0.9,2 0,0 -0.8,-1 -0.3,-2 l -0.9,1 0.3,-2 h -1.2 c 0,0 0.3,-1 1.2,-1 h -1.2 c 0,0 0,-1 1.4,-2 h -1.2 c 0,0 0.9,-1 2.2,-1 h -1 c 0,0 0.8,-1 1.8,-1 l -0.1,-1 h 1.9 -0.7 2.2 c 0,0 -0.5,-2 0.4,-2 z"
         style="fill:#b3b3b3;stroke:#000000;stroke-width:0.265px;stroke-linecap:butt;stroke-linejoin:miter;stroke-opacity:1" />
      <path
         inkscape:connector-curvature="0"
         id="path4580"
         d="m 80.5,100 c 0,0 -1.5,-0.9 -1.6,0 0,0 -3.4,-0.3 -2.8,1 0,0 0.7,3 4.5,1 0,0 3.2,0 3.3,1 0,0 0.6,0 0.8,-1 0,0 -4.2,-2 -4.2,-2 z"
         style="fill:#f4e3d7;stroke:#000000;stroke-width:0.265px;stroke-linecap:butt;stroke-linejoin:miter;stroke-opacity:1" />
      <path
         inkscape:connector-curvature="0"
         id="path4593"
         d="m 75.5,102 c 0,0 -3.2,-2.4 -7,-2.8"
         style="fill:none;stroke:#000000;stroke-width:0.265px;stroke-linecap:butt;stroke-linejoin:miter;stroke-opacity:1" />
      <path
         inkscape:connector-curvature="0"
         id="path4595"
         d="m 62.5,97.8 1.2,-0.1 0.5,0.3 -0.2,-0.5 1,0.4 -0.2,-0.4 1.1,0.7 -0.3,-0.7 0.8,0.8 -0.1,-0.5 0.7,0.7 v -0.4 l 0.4,0.5 v -0.5 l 0.4,0.7 -0.1,-0.7 0.8,1.1 -1.2,0.4 0.1,-0.5 -1.1,0.5 c 0,0 -0.1,-0.4 -0.2,-0.4 -0.1,0 -1.4,0.2 -1.4,0.2 L 64.9,99 c 0,0 -1.5,0.3 -1.5,0.1 0.1,-0.3 0.3,-0.8 0.3,-0.8 0,0 -1,0.3 -1,0.2 0,-0.1 -0.2,-0.7 -0.2,-0.7 z"
         style="fill:#d4aa00;stroke:#000000;stroke-width:0.265px;stroke-linecap:butt;stroke-linejoin:miter;stroke-opacity:1" />
    </g>
  </g>
</svg>
