<?xml version="1.0" encoding="UTF-8" standalone="no"?>
<!-- Created with Inkscape (http://www.inkscape.org/) -->

<svg
   xmlns:dc="http://purl.org/dc/elements/1.1/"
   xmlns:cc="http://creativecommons.org/ns#"
   xmlns:rdf="http://www.w3.org/1999/02/22-rdf-syntax-ns#"
   xmlns:svg="http://www.w3.org/2000/svg"
   xmlns="http://www.w3.org/2000/svg"
   xmlns:sodipodi="http://sodipodi.sourceforge.net/DTD/sodipodi-0.dtd"
   xmlns:inkscape="http://www.inkscape.org/namespaces/inkscape"
   width="57.8mm"
   height="72.3mm"
   viewBox="0 0 57.8 72.3"
   version="1.1"
   id="svg8"
   inkscape:version="0.92.3 (2405546, 2018-03-11)"
   sodipodi:docname="cbp-canadian.svg">
  <defs
     id="defs2" />
  <sodipodi:namedview
     id="base"
     pagecolor="#ffffff"
     bordercolor="#666666"
     borderopacity="1.0"
     inkscape:pageopacity="0.0"
     inkscape:pageshadow="2"
     inkscape:zoom="2.56"
     inkscape:cx="208"
     inkscape:cy="134"
     inkscape:document-units="px"
     inkscape:current-layer="layer2"
     showgrid="false"
     showborder="false"
     inkscape:window-width="1920"
     inkscape:window-height="985"
     inkscape:window-x="27"
     inkscape:window-y="1080"
     inkscape:window-maximized="1"
     inkscape:snap-nodes="true"
     inkscape:snap-grids="false"
     inkscape:snap-others="false"
     inkscape:object-nodes="true" />
  <metadata
     id="metadata5">
    <rdf:RDF>
      <cc:Work
         rdf:about="">
        <dc:format>image/svg+xml</dc:format>
        <dc:type
           rdf:resource="http://purl.org/dc/dcmitype/StillImage" />
        <dc:title></dc:title>
      </cc:Work>
    </rdf:RDF>
  </metadata>
  <g
     inkscape:groupmode="layer"
     id="layer6"
     inkscape:label="body"
     style="display:inline;opacity:1"
     transform="translate(218,-120)" />
  <g
     inkscape:groupmode="layer"
     id="layer4"
     inkscape:label="face"
     style="display:inline"
     transform="translate(218,-120)" />
  <g
     inkscape:groupmode="layer"
     id="layer5"
     inkscape:label="Eyes"
     style="display:inline"
     transform="translate(218,-120)" />
  <g
     inkscape:groupmode="layer"
     id="layer3"
     inkscape:label="hair/ear"
     style="display:inline"
     transform="translate(218,-120)" />
  <g
     inkscape:groupmode="layer"
     id="layer2"
     inkscape:label="hat"
     style="display:inline"
     transform="translate(218,-120)">
    <g
       id="g1022"
       transform="translate(24.9,-5.56)">
      <g
         id="g961"
         style="display:inline;opacity:1">
        <path
           style="fill:#d1a779;fill-opacity:1;stroke:#000000;stroke-width:0.265px;stroke-linecap:butt;stroke-linejoin:miter;stroke-opacity:1"
           d="m -197,148 c 0,0 1,-1 1,-3 0,0 1,-4 5,-3 0,0 1,0 1,1 0,0 4,-1 3,2 0,0 2,0 1,2 0,0 1,2 -1,2 0,0 5,2 -1,3 0,0 -4,-1 -4,-2 0,0 -3,0 -4,1 z"
           id="path886"
           inkscape:connector-curvature="0"
           sodipodi:nodetypes="ccccccccccc" />
        <path
           style="fill:#ff2a2a;stroke:#000000;stroke-width:0.265px;stroke-linecap:butt;stroke-linejoin:miter;stroke-opacity:1"
           d="m -207,153 10,-6 2,4 -9,5 z"
           id="path869"
           inkscape:connector-curvature="0"
           sodipodi:nodetypes="ccccc" />
        <path
           style="fill:none;stroke:#000000;stroke-width:0.265px;stroke-linecap:butt;stroke-linejoin:miter;stroke-opacity:1"
           d="m -193,148 c 0,0 1,-1 1,-3 0,0 1,-1 2,0 0,0 -2,5 3,0"
           id="path888"
           inkscape:connector-curvature="0" />
        <path
           style="fill:none;stroke:#000000;stroke-width:0.265px;stroke-linecap:butt;stroke-linejoin:miter;stroke-opacity:1"
           d="m -190,147 c 0,0 -1,4 4,0"
           id="path890"
           inkscape:connector-curvature="0" />
        <path
           style="fill:none;stroke:#000000;stroke-width:0.265px;stroke-linecap:butt;stroke-linejoin:miter;stroke-opacity:1"
           d="m -189,149 c 0,0 -2,3 2,0"
           id="path892"
           inkscape:connector-curvature="0" />
        <path
           style="fill:#004ad9;fill-opacity:1;stroke:#000000;stroke-width:0.265px;stroke-linecap:butt;stroke-linejoin:miter;stroke-opacity:1"
           d="m -233,172 c 0,0 -7,4 0,5 0,0 9,0 9,0 l -2,7 h 4 c 0,0 4,0 4,0 0,0 1,-8 1,-8 0,0 14,2 8,-4 l -9,-4 z"
           id="path908"
           inkscape:connector-curvature="0" />
        <path
           style="fill:#ff0000;fill-opacity:1;stroke:#000000;stroke-width:0.265px;stroke-linecap:butt;stroke-linejoin:miter;stroke-opacity:1"
           d="m -224,153 c 0,0 1,1 -1,3 l -8,2 1,2 -9,5 c 0,0 -1,1 1,1 l 9,1 c 0,0 0,1 1,1 l -6,3 14,2 3,-4 3,4 c 0,0 6,0 10,-3 l -7,-2 2,-10 -10,-6 z"
           id="path894"
           inkscape:connector-curvature="0" />
        <path
           style="fill:#ffffff;stroke:#000000;stroke-width:0.265px;stroke-linecap:butt;stroke-linejoin:miter;stroke-opacity:1"
           d="m -230,163 -2,1 2,1 z"
           id="path896"
           inkscape:connector-curvature="0" />
        <path
           style="fill:#ffd42a;stroke:#000000;stroke-width:0.265px;stroke-linecap:butt;stroke-linejoin:miter;stroke-opacity:1"
           d="m -222,167 h 3 l 4,-11 -2,-1 z"
           id="path898"
           inkscape:connector-curvature="0"
           sodipodi:nodetypes="ccccc" />
        <path
           style="fill:#280b0b;stroke:#000000;stroke-width:0.265px;stroke-linecap:butt;stroke-linejoin:miter;stroke-opacity:1"
           d="m -230,168 11,1 c 0,0 5,0 6,-1 v -2 l -5,1 h -4 l -8,-2 z"
           id="path904"
           inkscape:connector-curvature="0"
           sodipodi:nodetypes="cccccccc" />
        <path
           style="fill:#ffcc00;stroke:#000000;stroke-width:0.265px;stroke-linecap:butt;stroke-linejoin:miter;stroke-opacity:1"
           d="m -233,158 1,2 7,-2 v -2 z"
           id="path906"
           inkscape:connector-curvature="0" />
        <path
           style="fill:#280b0b;stroke:#000000;stroke-width:0.265px;stroke-linecap:butt;stroke-linejoin:miter;stroke-opacity:1"
           d="m -227,184 -1,7 c 0,0 -18,2 -14,6 0,0 2,2 20,-3 0,0 11,5 17,2 0,0 1,-4 -14,-5 l 1,-7 z"
           id="path910"
           inkscape:connector-curvature="0" />
        <path
           style="fill:none;stroke:#000000;stroke-width:0.265px;stroke-linecap:butt;stroke-linejoin:miter;stroke-opacity:1"
           d="m -223,194 1,-10"
           id="path912"
           inkscape:connector-curvature="0"
           sodipodi:nodetypes="cc" />
      </g>
      <g
         id="g866"
         style="display:inline">
        <path
           style="fill:#f2f2f2;stroke:#000000;stroke-width:0.265px;stroke-linecap:butt;stroke-linejoin:miter;stroke-opacity:1"
           d="m -211,152 v -4 l -7,-2 c 0,0 0,8 7,6 z"
           id="path940"
           inkscape:connector-curvature="0" />
        <path
           style="fill:#d1a779;fill-opacity:1;stroke:#000000;stroke-width:0.265px;stroke-linecap:butt;stroke-linejoin:miter;stroke-opacity:1"
           d="m -230,145 c 0,0 -5,4 -1,6 4,2 9,1 12,3 3,2 7,4 9,5 1,1 13,-1 3,-6 v -2 c 0,0 -2,2 -4,1 0,0 -6,2 -7,-6 0,0 5,3 8,2 v -3 c 0,0 9,2 3,-4 0,0 0,-1 -2,0 0,0 0,-2 -1,-2 0,0 1,-2 0,-3 h -12 c 0,0 4,5 -1,5 l -1,5 h -1 l 2,-5 c 0,0 -5,6 -7,4 z"
           id="path5833"
           inkscape:connector-curvature="0"
           sodipodi:nodetypes="cscscccccccccccccccc" />
        <path
           style="fill:none;stroke:#000000;stroke-width:0.258px;stroke-linecap:butt;stroke-linejoin:miter;stroke-opacity:1"
           d="m -213,148 -2,4"
           id="path1583"
           inkscape:connector-curvature="0"
           sodipodi:nodetypes="cc" />
        <path
           style="fill:none;stroke:#000000;stroke-width:0.341px;stroke-linecap:butt;stroke-linejoin:miter;stroke-opacity:1"
           d="m -216,147 -1,1"
           id="path1585"
           inkscape:connector-curvature="0"
           sodipodi:nodetypes="cc" />
      </g>
      <g
         id="g938"
         style="display:inline">
        <g
           id="g912">
          <path
             inkscape:connector-curvature="0"
             id="path5846"
             d="m -213,142 c 0,0 -3,2 -5,0 -1,-2 5,-5 5,-3 0,0 3,-3 4,1 -2,1 -4,2 -4,2 z"
             style="fill:#ffffff;stroke:#000000;stroke-width:0.265px;stroke-linecap:butt;stroke-linejoin:miter;stroke-opacity:1" />
          <path
             inkscape:connector-curvature="0"
             id="path5848"
             d="m -213,139 c 0,0 1,1 0,3"
             style="fill:#ffffff;stroke:#000000;stroke-width:0.265px;stroke-linecap:butt;stroke-linejoin:miter;stroke-opacity:1" />
        </g>
        <ellipse
           style="opacity:1;fill:#000000;fill-opacity:1;stroke:none;stroke-width:0.265;stroke-opacity:1"
           id="path914"
           cx="-214"
           cy="141"
           rx="0.533"
           ry="0.363" />
        <ellipse
           style="display:inline;opacity:1;fill:#000000;fill-opacity:1;stroke:none;stroke-width:0.265;stroke-opacity:1"
           id="path914-3"
           cx="-211"
           cy="140"
           rx="0.532"
           ry="0.362" />
      </g>
      <g
         id="g5839"
         style="display:inline">
        <path
           style="fill:#ffdd55;stroke:#000000;stroke-width:0.265px;stroke-linecap:butt;stroke-linejoin:miter;stroke-opacity:1"
           d="m -231,145 c -8,-2 -1,-9 -1,-9 h 12 c 0,0 1,5 -2,6 v 5 h -4 l 1,-6 c 0,0 -5,-3 -6,4 z"
           id="path5752"
           inkscape:connector-curvature="0"
           sodipodi:nodetypes="ccccccccc" />
        <path
           style="display:inline;fill:#cca572;fill-opacity:0.995;stroke:#000000;stroke-width:0.265px;stroke-linecap:butt;stroke-linejoin:miter;stroke-opacity:1"
           d="m -231,145 c 0,0 0,-7 6,-4 0,0 -1,8 -6,4 z"
           id="path5754"
           inkscape:connector-curvature="0" />
      </g>
      <g
         id="g5831">
        <path
           style="fill:#800000;stroke:#000000;stroke-width:0.265px;stroke-linecap:butt;stroke-linejoin:miter;stroke-opacity:1"
           d="m -238,134 c 0,0 3,-2 11,-1 -1,0 -1,-10 5,-3 -4,-1 7,-10 6,0 0,0 7,-5 5,4 0,0 8,-1 11,1 4,1 -31,4 -38,-1 z"
           id="path5747"
           inkscape:connector-curvature="0"
           sodipodi:nodetypes="ccccccc" />
        <path
           style="fill:#000000;stroke:#000000;stroke-width:0.265px;stroke-linecap:butt;stroke-linejoin:miter;stroke-opacity:1"
           d="m -227,133 c 0,0 16,1 16,1 0,0 -3,4 -16,-1 z"
           id="path5749"
           inkscape:connector-curvature="0" />
      </g>
    </g>
  </g>
</svg>
